<?xml version="1.0" encoding="UTF-8" standalone="no"?>
<!-- Generator: Adobe Illustrator 19.0.0, SVG Export Plug-In . SVG Version: 6.00 Build 0)  -->

<svg
   xmlns:dc="http://purl.org/dc/elements/1.1/"
   xmlns:cc="http://creativecommons.org/ns#"
   xmlns:rdf="http://www.w3.org/1999/02/22-rdf-syntax-ns#"
   xmlns:svg="http://www.w3.org/2000/svg"
   xmlns="http://www.w3.org/2000/svg"
   xmlns:sodipodi="http://sodipodi.sourceforge.net/DTD/sodipodi-0.dtd"
   xmlns:inkscape="http://www.inkscape.org/namespaces/inkscape"
   version="1.1"
   id="Capa_1"
   x="0px"
   y="0px"
   viewBox="0 0 58 58"
   style="enable-background:new 0 0 58 58;"
   xml:space="preserve"
   inkscape:version="0.91 r13725"
   sodipodi:docname="picture.svg"><metadata
     id="metadata45"><rdf:RDF><cc:Work
         rdf:about=""><dc:format>image/svg+xml</dc:format><dc:type
           rdf:resource="http://purl.org/dc/dcmitype/StillImage" /></cc:Work></rdf:RDF></metadata><defs
     id="defs43" /><sodipodi:namedview
     pagecolor="#ffffff"
     bordercolor="#666666"
     borderopacity="1"
     objecttolerance="10"
     gridtolerance="10"
     guidetolerance="10"
     inkscape:pageopacity="0"
     inkscape:pageshadow="2"
     inkscape:window-width="1129"
     inkscape:window-height="765"
     id="namedview41"
     showgrid="false"
     inkscape:zoom="5.7543862"
     inkscape:cx="7.1416079"
     inkscape:cy="27.339801"
     inkscape:window-x="784"
     inkscape:window-y="185"
     inkscape:window-maximized="0"
     inkscape:current-layer="Capa_1" /><g
     id="g3"><path
       d="M 2.0853683,50.110426 2.0697573,7.1108987 C 2.0694968,6.3935158 1.5776281,5.9695804 1,6 0.44876387,6.0290297 0,6.447 0,7 l 0,44 c 0,0.553 0.448,1 1,1 l 56,0 c 0.552,0 0.764682,-0.656121 0.761052,-0.930014 -0.0036,-0.273892 -0.153625,-0.955211 -0.752835,-0.955258 z m -0.331131,-0.06434 c -0.0052,-0.184221 -0.2835299,-0.5625 -0.1427089,-0.114081 z"
       id="path5"
       inkscape:connector-curvature="0"
       sodipodi:nodetypes="csssssszscccc" /><path
       d="m 11.364717,50.200176 -0.01561,-20.999527 c -5.33e-4,-0.717383 -0.492129,-1.141318 -1.069757,-1.110899 -0.5512356,0.02903 -0.9999996,0.447 -0.9999996,1 l 0,22 z"
       id="path5-6"
       inkscape:connector-curvature="0"
       sodipodi:nodetypes="cssscc" /></g><g
     id="g11" /><g
     id="g13" /><g
     id="g15" /><g
     id="g17" /><g
     id="g19" /><g
     id="g21" /><g
     id="g23" /><g
     id="g25" /><g
     id="g27" /><g
     id="g29" /><g
     id="g31" /><g
     id="g33" /><g
     id="g35" /><g
     id="g37" /><g
     id="g39" /><path
     d="M 19.996073,50.198533 19.980463,21.45817 c -5.33e-4,-0.981824 -0.492129,-1.56203 -1.069757,-1.520398 -0.551236,0.03973 -1,0.611773 -1,1.36862 l 0,30.10963 z"
     id="path5-6-7"
     inkscape:connector-curvature="0"
     sodipodi:nodetypes="cssscc" /><path
     d="m 30.029972,50.403643 -0.01561,-29.750037 c -5.33e-4,-1.016317 -0.492129,-1.616906 -1.069757,-1.573811 -0.551236,0.04113 -1,0.633265 -1,1.416701 l 0,31.167407 z"
     id="path5-6-7-5"
     inkscape:connector-curvature="0"
     sodipodi:nodetypes="cssscc" /><path
     d="m 40.131564,50.679339 -0.01561,-23.691992 c -5.33e-4,-0.809363 -0.492129,-1.287653 -1.069757,-1.253333 -0.551236,0.03275 -1,0.504312 -1,1.128216 l 0,24.820741 z"
     id="path5-6-7-5-3"
     inkscape:connector-curvature="0"
     sodipodi:nodetypes="cssscc" /><path
     d="M 49.97256,50.526784 49.95695,20.776746 c -5.33e-4,-1.016317 -0.492129,-1.616906 -1.069757,-1.573811 -0.551236,0.04113 -1,0.633265 -1,1.416701 l 0,31.167408 z"
     id="path5-6-7-5-5"
     inkscape:connector-curvature="0"
     sodipodi:nodetypes="cssscc" /></svg>