<?xml version="1.0" encoding="UTF-8" standalone="no"?>
<svg
   xmlns:dc="http://purl.org/dc/elements/1.1/"
   xmlns:cc="http://creativecommons.org/ns#"
   xmlns:rdf="http://www.w3.org/1999/02/22-rdf-syntax-ns#"
   xmlns:svg="http://www.w3.org/2000/svg"
   xmlns="http://www.w3.org/2000/svg"
   viewBox="0 0 400 400"
   height="400"
   width="400"
   version="1.1"
   id="svg2">
  <metadata
     id="metadata8">
    <rdf:RDF>
      <cc:Work
         rdf:about="">
        <dc:format>image/svg+xml</dc:format>
        <dc:type
           rdf:resource="http://purl.org/dc/dcmitype/StillImage" />
        <dc:title></dc:title>
      </cc:Work>
    </rdf:RDF>
  </metadata>
  <defs
     id="defs6" />
  <g
     transform="translate(-282.66294,-85.869649)"
     id="g4219">
    <path
       style="fill:#00aeef;fill-opacity:1;fill-rule:evenodd;stroke:none;stroke-width:1px;stroke-linecap:butt;stroke-linejoin:miter;stroke-opacity:1"
       d="m 667.72453,470.22807 0,-69.33242 -72.53238,72.53238 18.46613,0.12381 21.09514,-21.09513 z"
       id="path4138" />
    <path
       style="fill:#ec008c;fill-opacity:1;fill-rule:evenodd;stroke:none;stroke-width:1px;stroke-linecap:butt;stroke-linejoin:miter;stroke-opacity:1"
       d="m 667.72453,376.13774 0,-116.39844 -207.46393,207.46393 17.59977,0 57.8659,-57.86591 31.94052,8.55844 36.30832,-36.30833 28.01656,28.01656 z"
       id="path4140" />
    <path
       style="fill:#ffde00;fill-opacity:1;fill-rule:evenodd;stroke:none;stroke-width:1px;stroke-linecap:butt;stroke-linejoin:miter;stroke-opacity:1"
       d="m 666.65788,236.13963 0,-122.66505 -346.6621,346.6621 16.93314,0 96.39875,-94.39875 43.88637,12.83111 64.0713,-64.0713 21.90723,21.90724 z"
       id="path4142" />
    <path
       style="fill:#ffde00;fill-opacity:1;fill-rule:evenodd;stroke:none;stroke-width:1px;stroke-linecap:butt;stroke-linejoin:miter;stroke-opacity:1"
       d="m 299.03547,100.45822 69.33242,0 -72.53238,72.53238 -0.12381,-18.46613 21.09513,-21.09514 z"
       id="path4138-3" />
    <path
       style="fill:#ec008c;fill-opacity:1;fill-rule:evenodd;stroke:none;stroke-width:1px;stroke-linecap:butt;stroke-linejoin:miter;stroke-opacity:1"
       d="m 393.33061,101.73149 116.39844,0 -207.46393,207.46393 0,-17.59977 57.86591,-57.8659 -8.55844,-31.94052 36.30833,-36.30832 -28.01656,-28.01656 z"
       id="path4140-3" />
    <path
       style="fill:#00adee;fill-opacity:1;fill-rule:evenodd;stroke:none;stroke-width:1px;stroke-linecap:butt;stroke-linejoin:miter;stroke-opacity:1"
       d="m 533.32882,101.46677 122.66505,0 -346.6621,346.6621 0,-16.93314 94.39875,-96.39875 -12.83111,-43.88637 64.0713,-64.0713 -21.90724,-21.90723 z"
       id="path4142-4" />
  </g>
</svg>
